<svg xmlns="http://www.w3.org/2000/svg" xmlns:xlink="http://www.w3.org/1999/xlink" width="500" zoomAndPan="magnify" viewBox="0 0 375 374.999991" height="500" preserveAspectRatio="xMidYMid meet" version="1.2"><defs><clipPath id="71210cea63"><path d="M 48.554688 0 L 326.804688 0 L 326.804688 375 L 48.554688 375 Z M 48.554688 0 "/></clipPath><clipPath id="61becb097a"><path d="M 57 284 L 325.882812 284 L 325.882812 375 L 57 375 Z M 57 284 "/></clipPath></defs><g id="4cfc4c9e75"><rect x="0" width="375" y="0" height="374.999991" style="fill:#ffffff;fill-opacity:1;stroke:none;"/><rect x="0" width="375" y="0" height="374.999991" style="fill:#1263a0;fill-opacity:1;stroke:none;"/><g clip-rule="nonzero" clip-path="url(#71210cea63)"><path style=" stroke:none;fill-rule:nonzero;fill:#ffffff;fill-opacity:1;" d="M 58.570312 -0.136719 L 101.5 0.0429688 L 102.105469 54.886719 C 103.921875 56.984375 105.636719 59.371094 107.984375 61.546875 C 108.800781 62.300781 110.613281 62.667969 111.273438 63.484375 C 111.96875 64.347656 110.855469 65.925781 111.589844 66.75 C 112.050781 67.269531 113.546875 66.65625 113.988281 67.199219 C 114.410156 67.71875 114.148438 68.5625 114.5625 69.097656 C 115.058594 69.746094 116.015625 68.660156 116.484375 69.398438 C 116.902344 70.054688 116.230469 71.230469 116.503906 72.207031 C 116.773438 73.179688 117.964844 73.144531 118.304688 74.210938 C 118.667969 75.355469 115.148438 77.191406 115.394531 78.492188 C 115.515625 79.113281 116.398438 78.714844 117.222656 79.1875 C 117.757812 79.5 117.652344 80.25 118.164062 80.695312 C 118.914062 81.347656 120.222656 81.703125 120.46875 82.015625 C 120.667969 82.269531 120.527344 82.890625 119.5 83.234375 C 118.753906 83.484375 117.613281 83.179688 116.730469 83.371094 C 115.472656 83.640625 114.585938 84.390625 114.808594 84.648438 C 115.109375 84.996094 116.109375 84.765625 117.144531 85.027344 C 118.210938 85.292969 119.425781 86.578125 120.441406 86.984375 C 121.28125 87.324219 121.171875 86.082031 122.34375 87.066406 C 123.078125 87.683594 123.882812 88.320312 124.464844 89.253906 C 125.078125 90.238281 125.472656 91.515625 126.277344 92.132812 C 126.796875 92.53125 127.9375 92.515625 128.890625 92.691406 C 129.910156 92.878906 130.75 93.246094 131.570312 93.222656 C 132.949219 93.179688 133.28125 92.773438 134.265625 93.335938 C 134.628906 93.539062 134.667969 94.273438 135.148438 94.75 C 135.644531 95.242188 136.574219 95.484375 136.609375 96.007812 C 136.644531 96.578125 135.128906 96.960938 135.382812 97.421875 C 135.574219 97.777344 137.375 97.214844 137.539062 97.570312 C 137.71875 97.957031 137.292969 98.648438 137.527344 98.964844 C 137.988281 99.589844 139.292969 99.488281 139.945312 99.863281 C 141.023438 100.484375 141.523438 101.460938 142.394531 102.140625 C 142.890625 102.527344 142.382812 103.691406 142.859375 104.144531 C 143.515625 104.765625 144.429688 104.769531 145.148438 105.414062 C 145.957031 106.132812 145.621094 107.535156 146.429688 108.382812 C 146.921875 108.902344 148.613281 108.636719 149.273438 109.082031 C 149.839844 109.46875 149.429688 110.007812 149.777344 110.535156 C 150.242188 111.238281 151.753906 110.253906 151.96875 112.503906 C 152.027344 113.128906 151.625 113.582031 151.652344 114.832031 C 151.667969 115.488281 151.96875 115.582031 152.339844 116.128906 C 152.574219 116.476562 153.171875 116.679688 153.402344 117.078125 C 153.601562 117.417969 153.445312 117.972656 153.566406 118.09375 C 153.875 118.390625 154.488281 117.582031 154.828125 117.8125 C 155.238281 118.089844 155.332031 119.144531 155.769531 119.371094 C 156.582031 119.792969 157.460938 119.445312 158.359375 119.65625 C 158.769531 119.753906 159.703125 120.320312 159.628906 121.023438 C 159.539062 121.875 158.242188 123.488281 158.730469 123.644531 C 159.003906 123.730469 159.566406 124.207031 159.953125 123.988281 C 160.3125 123.789062 160.480469 122.914062 160.929688 122.746094 C 161.484375 122.542969 161.671875 123.199219 162.230469 122.96875 C 162.984375 122.65625 162.554688 121.390625 164.394531 121.664062 C 164.640625 121.699219 165.636719 122.4375 165.785156 123.523438 C 165.84375 123.925781 165.148438 124.304688 165.070312 124.75 C 164.953125 125.449219 165.453125 126.191406 165.804688 126.578125 C 166.804688 127.667969 169.246094 126.507812 169.648438 126.527344 C 171.222656 126.613281 171.835938 127.824219 172.921875 127.316406 C 174.109375 126.761719 173.253906 126.648438 174.226562 126.078125 C 174.828125 125.722656 175.988281 125.699219 177.023438 125.65625 C 177.84375 125.617188 178.585938 125.40625 178.90625 126.171875 C 179.089844 126.601562 179.769531 127.894531 179.636719 128.5 C 179.515625 129.058594 178.589844 128.925781 178.535156 129.476562 C 178.492188 129.894531 179.117188 130.253906 178.957031 130.585938 C 178.78125 130.957031 178.308594 131.257812 178.230469 131.722656 C 178.125 132.351562 178.414062 133.164062 178.085938 133.820312 C 177.777344 134.445312 175.925781 133.753906 175.839844 134.484375 C 175.769531 135.09375 175.828125 136.0625 176.28125 136.542969 C 176.71875 137.007812 177.554688 136.988281 177.441406 137.605469 C 177.367188 138.007812 176.722656 138.957031 176.015625 139.574219 C 175.664062 139.882812 175.140625 139.757812 174.976562 140.140625 C 174.589844 141.050781 175.550781 142.359375 175.433594 142.851562 C 175.300781 143.398438 174.652344 144.324219 174.539062 144.949219 C 174.445312 145.460938 174.921875 145.679688 174.605469 146.105469 C 174.238281 146.605469 172.929688 146.71875 172.777344 147.253906 C 172.652344 147.6875 173.558594 147.796875 173.808594 148.609375 C 174.160156 149.726562 173.902344 151.59375 173.726562 152.199219 C 173.582031 152.691406 170.933594 151.828125 170.785156 152.316406 C 170.734375 152.484375 171.023438 152.683594 170.972656 152.851562 C 170.886719 153.125 170.257812 152.851562 170.175781 153.125 C 170.148438 153.226562 170.3125 154.636719 170.976562 155.023438 C 171.425781 155.285156 172.3125 154.457031 172.707031 154.816406 C 173.335938 155.390625 173.507812 156.351562 173.472656 156.460938 C 173.414062 156.667969 173.007812 156.613281 172.863281 156.972656 C 172.734375 157.304688 172.871094 158.046875 172.636719 158.246094 C 172.074219 158.726562 171.246094 158.65625 171.101562 159.101562 C 171.019531 159.355469 172.171875 159.394531 172.433594 160.085938 C 172.613281 160.558594 171.746094 161.699219 172.253906 161.996094 C 172.589844 162.191406 173.117188 161.882812 173.664062 161.871094 C 174.460938 161.855469 175.296875 162.117188 175.65625 162.585938 C 176.15625 163.246094 174.929688 164.101562 175.015625 164.925781 C 175.140625 166.167969 176.394531 167.34375 176.289062 167.683594 C 176.179688 168.03125 175.921875 168.777344 175.652344 169.085938 C 175.328125 169.460938 173.785156 168.515625 173.304688 168.820312 C 173.082031 168.964844 173.144531 169.378906 172.921875 169.539062 C 172.640625 169.738281 171.207031 169.375 170.925781 169.585938 C 170.574219 169.84375 170.753906 170.164062 170.511719 170.472656 C 169.691406 171.515625 168.898438 172.707031 168.375 173.414062 C 168.042969 173.863281 168.832031 173.765625 169.136719 174.082031 C 169.433594 174.394531 169.566406 175.328125 169.964844 175.671875 C 170.660156 176.273438 171.59375 176.304688 171.53125 176.960938 C 171.503906 177.234375 171.125 177.699219 171.054688 178.183594 C 170.988281 178.660156 171.230469 179.164062 171.054688 179.46875 C 170.894531 179.75 170.515625 180.121094 169.953125 180.328125 C 169.503906 180.492188 168.859375 180.492188 168.699219 180.695312 C 168.238281 181.273438 169.574219 181.773438 169.550781 182.375 C 169.515625 183.1875 168.285156 184.105469 168.8125 184.9375 C 169.046875 185.304688 169.902344 184.160156 170.308594 184.316406 C 170.636719 184.445312 170.558594 185.066406 170.980469 185.078125 C 171.324219 185.09375 171.691406 185.214844 172.050781 185.011719 C 172.332031 184.855469 172.59375 184.378906 172.929688 184.304688 C 173.253906 184.230469 172.503906 184.65625 173.539062 185.71875 C 173.828125 186.015625 174.433594 187.464844 175.058594 187.863281 C 175.972656 188.449219 176.960938 188.007812 177.3125 188.484375 C 178.105469 189.554688 177.828125 190.652344 178.625 190.800781 C 178.949219 190.859375 179.132812 190.4375 179.4375 190.210938 C 179.980469 189.804688 181.152344 189.828125 181.636719 189.046875 C 182.085938 188.324219 182.511719 187.699219 182.691406 186.917969 C 182.84375 186.273438 182.761719 185.410156 182.976562 185.320312 C 183.484375 185.113281 183.824219 185.832031 184.402344 185.972656 C 184.832031 186.078125 185.503906 185.617188 185.914062 185.515625 C 186.40625 185.394531 187.214844 185.457031 187.65625 185 C 187.953125 184.695312 187.882812 183.855469 188.191406 183.695312 C 188.691406 183.4375 189.5 183.695312 189.9375 183.265625 C 190.445312 182.765625 190.570312 181.558594 190.988281 181.214844 C 191.523438 180.773438 192.710938 180.59375 193.148438 180.171875 C 193.523438 179.8125 192.621094 178.261719 192.90625 177.929688 C 193.191406 177.597656 193.503906 177.957031 193.792969 177.75 C 194.125 177.511719 194.09375 177.128906 194.410156 176.984375 C 194.769531 176.824219 195.179688 177.761719 195.570312 177.828125 C 196.089844 177.914062 196.574219 177.210938 196.851562 177.714844 C 197.078125 178.121094 196.773438 178.890625 197.128906 179.332031 C 197.441406 179.722656 198.421875 179.777344 198.523438 180.261719 C 198.628906 180.765625 197.625 181.796875 198.023438 182.046875 C 198.5 182.34375 198.976562 181.546875 199.742188 181.582031 C 200.175781 181.597656 200.265625 182.046875 200.722656 182.199219 C 201.65625 182.507812 202.191406 182.691406 202.457031 183.214844 C 202.640625 183.574219 202.484375 183.71875 202.023438 184.347656 C 201.445312 185.140625 201.226562 186.433594 201.449219 186.886719 C 201.824219 187.644531 203.128906 186.71875 203.882812 186.945312 C 204.074219 187.003906 203.871094 187.382812 203.933594 187.710938 C 204.003906 188.050781 204.339844 188.34375 204.433594 188.546875 C 204.578125 188.851562 203.644531 189.269531 203.464844 190.003906 C 203.304688 190.644531 204.21875 191.316406 204.34375 191.949219 C 204.4375 192.417969 203.714844 192.917969 203.804688 193.117188 C 204 193.542969 205.171875 193.636719 205.363281 194.066406 C 205.742188 194.898438 205.121094 196.359375 205.488281 197.195312 C 205.933594 198.210938 207.726562 198.945312 208.15625 199.964844 C 208.316406 200.34375 207.339844 200.6875 207.609375 201.097656 C 207.894531 201.53125 208.59375 201.410156 209.007812 201.875 C 209.339844 202.246094 209.308594 202.761719 209.691406 203.160156 C 210.125 203.609375 211.320312 204.25 211.804688 204.71875 C 212.363281 205.257812 211.542969 206.113281 212.082031 206.652344 C 212.390625 206.957031 212.925781 206.925781 213.203125 207.453125 C 213.316406 207.664062 212.835938 207.664062 212.902344 207.96875 C 212.992188 208.382812 213.632812 209.09375 213.855469 209.183594 C 214.335938 209.386719 215.222656 208.28125 215.628906 208.605469 C 215.917969 208.835938 214.90625 209.953125 215.15625 210.222656 C 215.414062 210.503906 216.28125 210.386719 216.613281 210.609375 C 217.039062 210.890625 216.273438 211.199219 216.554688 211.511719 C 216.757812 211.742188 217.746094 211.371094 218.175781 211.59375 C 218.546875 211.78125 218.375 212.566406 218.433594 212.738281 C 218.546875 213.078125 219 213.613281 219.105469 214.585938 C 219.140625 214.925781 218.789062 215.15625 218.746094 215.554688 C 218.683594 216.175781 218.894531 216.953125 218.796875 217.25 C 218.519531 218.074219 216.875 217.71875 216.488281 218.128906 C 215.964844 218.6875 216.769531 219.914062 217.265625 220.46875 C 217.746094 221.003906 217.214844 221.820312 218.121094 222.492188 C 218.449219 222.734375 219.085938 222.53125 219.742188 222.734375 C 220.070312 222.839844 219.886719 223.207031 220.191406 223.402344 C 220.578125 223.648438 221.433594 223.730469 221.640625 223.871094 C 222.230469 224.285156 222.371094 224.953125 222.972656 225.136719 C 223.210938 225.207031 222.742188 226.164062 222.96875 226.1875 C 223.554688 226.246094 224.058594 226.476562 224.753906 226.1875 C 225.203125 225.996094 225.59375 225.261719 226.074219 224.984375 C 226.601562 224.683594 227.210938 224.84375 227.617188 224.863281 C 228.464844 224.902344 229.328125 226.023438 230.128906 226.429688 C 230.882812 226.8125 231.589844 226.46875 232.082031 226.957031 C 232.539062 227.40625 232.320312 228.128906 232.652344 228.648438 C 232.898438 229.03125 233.691406 229.207031 233.992188 229.570312 C 234.261719 229.898438 234.003906 230.773438 234.167969 231.15625 C 234.351562 231.582031 234.960938 231.515625 235.203125 231.898438 C 235.488281 232.347656 235.070312 232.914062 235.339844 233.351562 C 235.523438 233.640625 236.042969 234.34375 236.054688 234.714844 C 236.085938 235.539062 234.378906 235.722656 234.519531 236.523438 C 234.605469 237 235.933594 237.207031 236.648438 237.859375 C 237.125 238.289062 236.058594 238.835938 236.308594 239.363281 C 236.558594 239.886719 238.128906 240.390625 238.25 240.730469 C 238.488281 241.398438 237.574219 241.800781 237.464844 242.316406 C 237.253906 243.304688 237.707031 244.25 238.734375 244.957031 C 239.136719 245.238281 240.359375 246.09375 241.675781 246.542969 C 242.292969 246.753906 242.925781 246.324219 243.507812 246.707031 C 243.914062 246.976562 243.804688 247.777344 244.085938 248.304688 C 244.507812 249.097656 245.289062 249.609375 245.859375 249.40625 C 246.242188 249.269531 247.1875 248.222656 246.953125 247.367188 C 246.792969 246.785156 245.417969 246.503906 245.566406 245.84375 C 245.714844 245.203125 246.609375 244.726562 247.105469 244.191406 C 247.8125 243.425781 248.1875 242.699219 248.539062 242.5625 C 249.007812 242.382812 249.632812 242.507812 250.015625 242.289062 C 250.34375 242.101562 250.429688 241.566406 250.785156 241.460938 C 251.871094 241.140625 252.398438 242.101562 252.957031 242.320312 C 253.433594 242.503906 253.980469 241.910156 254.371094 242.148438 C 254.839844 242.4375 256.304688 242.398438 258.671875 242.523438 C 259.128906 242.546875 259.898438 243.726562 260.5 243.765625 C 261.265625 243.8125 261.875 242.734375 262.449219 242.820312 C 263.078125 242.917969 263.53125 243.855469 264.09375 244.203125 C 264.914062 244.707031 265.789062 244.632812 266.304688 244.460938 C 267.105469 244.191406 266.226562 243.574219 266.414062 242.886719 C 266.5625 242.351562 267.527344 242.109375 267.589844 241.585938 C 267.722656 240.503906 266.730469 240.375 267.03125 239.925781 C 267.660156 238.988281 268.722656 239.96875 269.617188 239.527344 C 270.726562 238.976562 271.894531 237.84375 272.523438 238.1875 C 272.933594 238.410156 272.984375 239.699219 273.757812 239.890625 C 274.777344 240.144531 276.554688 239.296875 277.097656 239.582031 C 277.441406 239.761719 278.046875 241.015625 278.5 241.046875 C 279.105469 241.09375 279.597656 239.882812 280.378906 239.878906 C 280.6875 239.878906 281.105469 240.328125 281.425781 240.289062 C 281.78125 240.246094 282.140625 239.546875 282.5 239.511719 C 282.980469 239.464844 283.535156 240.167969 283.992188 240.0625 C 284.796875 239.878906 284.96875 238.929688 285.78125 238.765625 C 286.8125 238.554688 287.476562 238.414062 288.527344 238.375 C 289.722656 238.332031 290.160156 241.878906 291.449219 241.589844 C 291.957031 241.476562 292.242188 240.703125 292.835938 240.398438 C 294.078125 239.757812 295.714844 239.390625 296.785156 238.976562 C 297.535156 238.6875 298.410156 239.140625 299.148438 238.773438 C 299.3125 238.6875 299.859375 239.320312 300.398438 239.238281 C 300.871094 239.164062 301.300781 238.363281 301.949219 238.492188 C 302.4375 238.589844 303.34375 238.605469 303.855469 238.910156 C 304.304688 239.179688 304.359375 239.738281 304.773438 239.867188 C 305.742188 240.171875 306.546875 239.820312 306.859375 239.65625 C 307.351562 239.394531 306.023438 239.21875 305.300781 238.363281 C 304.519531 237.441406 304.328125 235.832031 304.703125 235.390625 C 305.414062 234.558594 306.59375 233.765625 306.679688 232.804688 C 306.738281 232.160156 305.675781 231.324219 306.007812 230.785156 C 306.230469 230.429688 307.132812 230.292969 307.675781 230.125 C 308.136719 229.984375 308.21875 229.773438 308.625 229.851562 C 309.273438 229.972656 309.5 230.703125 309.949219 230.535156 C 310.648438 230.273438 310.320312 228.097656 310.699219 228.269531 C 311.8125 228.78125 314.167969 230.34375 315.191406 231.59375 C 315.976562 232.558594 315.417969 233.144531 316.28125 234.089844 C 316.925781 234.800781 317.84375 234.75 318.511719 235.472656 C 318.878906 235.871094 316.511719 235.707031 316.800781 236.117188 C 317.035156 236.449219 317.234375 237.195312 317.761719 237.59375 C 318.183594 237.914062 318.949219 237.480469 319.464844 237.761719 C 319.855469 237.972656 319.828125 238.738281 320.160156 239.050781 C 320.769531 239.632812 321.65625 239.8125 321.996094 240.164062 C 322.21875 240.398438 321.75 240.855469 321.796875 241.3125 C 321.84375 241.769531 322.40625 242.226562 322.726562 242.445312 C 323.089844 242.695312 323.785156 243.253906 324.359375 243.292969 C 324.984375 243.335938 325.476562 242.855469 325.730469 243.175781 L 326.566406 377.085938 L 58.433594 376.078125 L 58.222656 282.308594 C 58.214844 280.578125 57.75 279.8125 58.621094 277.570312 C 58.792969 277.128906 59.539062 277.222656 60.070312 276.484375 C 60.464844 275.929688 60.679688 274.539062 60.800781 274.136719 C 60.914062 273.761719 61.558594 273.164062 61.496094 272.402344 C 61.445312 271.800781 60.675781 271.007812 60.769531 270.710938 C 61.125 269.625 62.285156 268.792969 62.523438 267.722656 C 62.722656 266.820312 60.648438 265.785156 60.863281 264.929688 C 61.097656 264 62.488281 263.707031 63.261719 263.023438 C 63.699219 262.636719 63.097656 262.148438 63.289062 261.675781 C 63.539062 261.058594 64.492188 260.445312 64.289062 259.859375 C 64.035156 259.152344 62.34375 259.089844 61.386719 258.589844 C 60.757812 258.265625 61.257812 255.308594 60.5 255.011719 C 59.449219 254.605469 58.296875 256.148438 57.0625 256.042969 C 56.179688 255.96875 55.289062 253.378906 54.449219 253.160156 C 53.796875 252.988281 53.171875 254.746094 52.613281 254.789062 C 51.203125 254.898438 50.179688 253.582031 50.003906 252.734375 C 49.859375 252.054688 51.046875 250.683594 50.828125 250.125 C 50.417969 249.078125 48.585938 248.949219 48.550781 247.886719 C 48.53125 247.148438 49.632812 246.785156 49.921875 245.9375 C 50.179688 245.175781 49.605469 243.929688 49.84375 243.222656 C 50.375 241.652344 52.320312 241.167969 53.003906 239.796875 C 53.285156 239.238281 52.90625 238.808594 53.132812 238.222656 C 53.320312 237.742188 54.191406 237.34375 54.367188 236.78125 C 54.566406 236.152344 54.074219 235.359375 54.320312 234.785156 C 54.523438 234.316406 55.179688 235.007812 55.40625 234.566406 C 55.65625 234.082031 55.300781 233.445312 55.492188 232.773438 C 55.648438 232.226562 56.453125 232.101562 56.765625 231.574219 C 57.070312 231.058594 56.878906 230.140625 57.105469 229.769531 C 57.628906 228.921875 58.9375 228.441406 59.890625 228.160156 C 61.039062 227.816406 61.847656 227.691406 62.496094 226.601562 C 63.613281 224.710938 65.742188 223.082031 66.332031 220.457031 C 66.480469 219.816406 66.46875 218.667969 66.742188 217.621094 C 66.890625 217.046875 67.558594 216.5 67.515625 216.082031 C 67.394531 214.914062 66.070312 214.757812 66.484375 214.085938 C 67.285156 212.773438 68.464844 212.632812 69.175781 211.519531 C 69.464844 211.070312 69.328125 209.847656 69.597656 209.269531 C 70.011719 208.382812 71.140625 208.421875 71.53125 207.441406 C 72.074219 206.078125 72.273438 203.871094 72.855469 202.480469 C 73.363281 201.269531 74.261719 200.878906 74.644531 199.644531 C 74.859375 198.964844 74.3125 197.554688 74.582031 196.996094 C 75.261719 195.59375 76.667969 194.65625 77.847656 192.898438 C 78.085938 192.542969 77.917969 191.355469 78.171875 191.003906 C 78.53125 190.503906 79.445312 190.410156 79.75 189.875 C 80.238281 189.023438 79.636719 187.226562 80.132812 186.515625 C 81.585938 184.421875 83.371094 184.046875 83.378906 182.054688 C 83.390625 180.148438 81.839844 179.839844 80.796875 178.574219 C 80.140625 177.777344 80.839844 175.5 80.082031 174.601562 C 79.589844 174.015625 78.625 173.039062 77.683594 172.847656 C 76.714844 172.648438 75.765625 173.242188 74.957031 172.859375 C 74.300781 172.550781 73.367188 170.679688 72.625 170.476562 C 71.550781 170.179688 70.660156 171.550781 69.710938 170.917969 C 69.042969 170.472656 69.109375 169.140625 68.566406 168.386719 C 67.996094 167.597656 66.820312 167.382812 66.191406 166.753906 C 65.675781 166.238281 65.789062 164.992188 65.550781 163.992188 C 65.398438 163.351562 64.871094 162.917969 64.699219 162.496094 C 64.316406 161.566406 63.671875 161.898438 63.21875 160.960938 C 62.921875 160.34375 63.027344 158.996094 62.597656 158.421875 C 62.265625 157.980469 62.027344 157.574219 61.574219 157.324219 C 61.261719 157.15625 60.695312 157.183594 60.535156 156.824219 C 60.21875 156.117188 60.785156 155.882812 61.28125 155.457031 C 61.867188 154.953125 62.445312 154.277344 62.683594 153.585938 C 62.8125 153.199219 63.199219 152.210938 62.796875 151.59375 C 62.421875 151.019531 61.265625 150.820312 61.136719 150.375 C 60.96875 149.8125 61.460938 149.375 61.433594 148.730469 C 61.402344 148.003906 60.839844 147.066406 60.332031 146.332031 C 59.84375 145.625 59.140625 143.890625 58.449219 143.230469 C 57.53125 142.351562 56.679688 142.578125 56.777344 141.875 C 56.820312 141.554688 57.253906 141.582031 57.523438 141.109375 C 57.757812 140.699219 57.828125 139.785156 57.894531 139.53125 C 57.445312 92.636719 57.363281 45.929688 58.570312 -0.132812 Z M 58.570312 -0.136719 "/></g><g clip-rule="nonzero" clip-path="url(#61becb097a)"><path style=" stroke:none;fill-rule:nonzero;fill:#1263a0;fill-opacity:1;" d="M 57.234375 375.890625 C 57.234375 375.890625 81.59375 357.332031 91.261719 352.691406 C 100.925781 348.050781 99.378906 348.824219 112.140625 336.0625 C 124.898438 323.304688 125.671875 328.332031 135.335938 317.117188 C 145.003906 305.90625 146.164062 295.46875 153.898438 306.292969 C 161.628906 317.117188 163.5625 325.238281 169.75 314.410156 C 175.933594 303.585938 188.695312 281.933594 193.335938 284.640625 C 197.976562 287.347656 208.101562 302.988281 212.742188 308.832031 C 217.382812 314.675781 218.238281 311.925781 221.503906 316.910156 C 224.769531 321.890625 227.863281 322.40625 231.300781 326.703125 C 234.738281 331 249 316.566406 252.4375 313.300781 C 255.875 310.035156 272.71875 332.890625 280.964844 337.359375 C 289.214844 341.828125 289.042969 346.46875 294.023438 348.871094 C 299.007812 351.277344 332.519531 378.160156 327.707031 375.890625 C 322.894531 373.617188 320.664062 368.808594 316.539062 369.320312 C 312.414062 369.839844 311.554688 374.824219 308.117188 369.839844 C 304.679688 364.855469 307.429688 362.277344 296.949219 356.261719 C 286.464844 350.25 283.027344 346.125 279.246094 348.183594 C 275.464844 350.25 283.027344 355.746094 284.574219 361.246094 C 286.121094 366.746094 290.246094 377.054688 286.292969 370.183594 C 282.34375 363.308594 282.34375 361.074219 276.667969 356.433594 C 270.996094 351.792969 272.199219 352.480469 269.28125 349.390625 C 266.355469 346.296875 264.640625 341.3125 261.71875 335.8125 C 258.796875 330.3125 259.484375 323.78125 257.421875 326.703125 C 255.359375 329.625 255.359375 329.625 255.359375 329.625 C 255.359375 329.625 258.453125 333.234375 257.59375 336.84375 C 256.734375 340.453125 260.6875 345.609375 261.71875 349.042969 C 262.75 352.480469 269.109375 362.105469 270.136719 365.886719 C 271.167969 369.667969 272.71875 374.304688 266.53125 363.480469 C 260.34375 352.652344 262.234375 358.152344 258.28125 354.199219 C 254.328125 350.25 256.21875 343.71875 254.328125 346.46875 C 252.4375 349.21875 251.578125 350.59375 249.171875 355.402344 C 246.765625 360.214844 239.378906 359.527344 238.691406 363.824219 C 238.003906 368.121094 232.160156 372.074219 233.535156 368.289062 C 234.910156 364.511719 231.988281 372.246094 238.691406 358.324219 C 245.390625 344.40625 246.078125 348.183594 245.734375 341.65625 C 245.390625 335.125 248.398438 331.515625 246.164062 332.117188 C 243.929688 332.71875 242.554688 335.640625 239.894531 338.648438 C 237.230469 341.65625 234.480469 344.234375 234.222656 346.898438 C 233.964844 349.5625 232.074219 353.941406 232.589844 350.675781 C 233.105469 347.414062 233.277344 347.496094 232.929688 345.09375 C 232.589844 342.6875 234.824219 342.429688 235.511719 338.5625 C 236.199219 334.695312 244.449219 329.367188 244.105469 328.679688 C 243.757812 327.992188 239.121094 329.023438 236.371094 331.429688 C 233.621094 333.835938 233.019531 337.789062 228.808594 340.625 C 224.597656 343.460938 219.097656 347.242188 215.664062 350.847656 C 212.226562 354.457031 207.242188 352.652344 206.726562 360.730469 C 206.210938 368.808594 207.414062 378.257812 205.867188 372.585938 C 204.320312 366.917969 204.664062 363.824219 203.460938 365.542969 C 202.257812 367.261719 201.570312 369.152344 197.960938 371.730469 C 194.351562 374.304688 189.199219 377.914062 191.945312 373.789062 C 194.695312 369.667969 191.945312 376.027344 197.960938 367.777344 C 203.976562 359.527344 195.902344 361.246094 202.773438 355.058594 C 209.648438 348.871094 227.691406 335.8125 227.519531 333.75 C 227.347656 331.6875 227.519531 332.890625 222.023438 336.5 C 216.519531 340.109375 209.992188 341.3125 205.179688 346.808594 C 200.367188 352.308594 188.683594 352.996094 189.539062 360.558594 C 190.398438 368.121094 192.289062 367.605469 185.246094 363.308594 C 178.199219 359.011719 186.449219 357.808594 175.277344 363.824219 C 164.105469 369.839844 159.984375 366.230469 159.984375 370.355469 C 159.984375 374.476562 148.640625 382.210938 146.0625 381.523438 C 143.484375 380.839844 144.6875 381.953125 147.953125 380.0625 C 151.21875 378.171875 150.789062 377.3125 152.679688 375.9375 C 154.570312 374.566406 156.117188 371.988281 155.515625 371.214844 C 154.914062 370.4375 153.367188 369.839844 150.445312 370.609375 C 147.523438 371.386719 144.515625 371.816406 142.796875 370.183594 C 141.078125 368.550781 139.789062 367.089844 144.171875 368.289062 C 148.554688 369.496094 145.632812 366.230469 153.796875 364.769531 C 161.957031 363.308594 158.179688 361.332031 168.230469 356.863281 C 178.285156 352.398438 180.863281 352.652344 184.472656 350.675781 C 188.078125 348.699219 189.539062 347.414062 191.773438 342.601562 C 194.007812 337.789062 195.902344 340.023438 195.214844 335.039062 C 194.523438 330.054688 195.902344 330.484375 191.6875 332.117188 C 187.476562 333.75 188.769531 329.109375 184.386719 334.78125 C 180.003906 340.453125 179.144531 336.929688 174.417969 342 C 169.691406 347.070312 161.785156 354.714844 162.820312 351.621094 C 163.847656 348.53125 167.542969 349.390625 168.316406 345.265625 C 169.089844 341.140625 174.332031 336.265625 177.597656 332.988281 C 180.863281 329.710938 181.121094 330.65625 186.707031 323.523438 C 192.289062 316.394531 199.335938 311.667969 196.328125 311.582031 C 193.320312 311.496094 193.320312 308.574219 192.03125 310.980469 C 190.742188 313.386719 190.140625 313.042969 187.394531 315.964844 C 184.644531 318.882812 182.066406 318.285156 180.605469 322.152344 C 179.144531 326.015625 181.292969 324.039062 175.621094 329.539062 C 169.949219 335.039062 165.738281 341.914062 166.597656 338.046875 C 167.457031 334.179688 168.574219 336.070312 169.949219 330.65625 C 171.324219 325.242188 175.019531 324.984375 178.285156 320.429688 C 181.550781 315.878906 192.289062 308.917969 192.117188 304.363281 C 191.945312 299.808594 193.238281 299.722656 192.03125 297.832031 C 190.828125 295.945312 191.257812 291.5625 189.199219 293.882812 C 187.136719 296.203125 186.363281 296.886719 182.582031 302.472656 C 178.800781 308.058594 179.402344 304.363281 175.363281 310.722656 C 171.324219 317.082031 169.003906 317.855469 165.308594 323.867188 C 165.308594 323.867188 165.351562 326.296875 158.523438 332.988281 C 151.691406 339.679688 152.464844 338.132812 148.082031 346.25 C 143.699219 354.371094 142.023438 352.695312 142.023438 357.59375 C 142.023438 357.59375 142.066406 357.765625 142.238281 359.484375 C 142.410156 361.203125 144.128906 364.167969 143.570312 364.296875 C 143.011719 364.425781 142.925781 362.234375 141.378906 361.589844 C 139.832031 360.945312 141.464844 359.65625 138.074219 361.03125 C 134.675781 362.40625 136.867188 360.515625 134.636719 359.097656 C 132.402344 357.679688 137.597656 353.898438 137.125 351.792969 C 136.65625 349.691406 139.101562 349.128906 138.199219 347.070312 C 137.296875 345.003906 138.671875 344.621094 137.167969 343.976562 C 135.664062 343.332031 127.589844 354.242188 123.335938 354.628906 C 119.082031 355.015625 113.410156 363.910156 112.121094 364.296875 C 110.832031 364.683594 107.484375 368.289062 108.128906 366.402344 C 108.773438 364.511719 110.832031 364.167969 112.894531 361.375 C 114.957031 358.582031 115.902344 354.371094 118.695312 353.039062 C 121.488281 351.707031 126.386719 349.429688 128.921875 345.691406 C 131.457031 341.957031 134.507812 339.679688 134.421875 337.316406 C 134.335938 334.953125 142.925781 330.269531 145.503906 325.757812 C 148.082031 321.25 151.949219 322.664062 152.078125 318.796875 C 152.207031 314.933594 152.335938 313.515625 150.917969 312.871094 C 149.5 312.226562 150.660156 316.480469 148.210938 317.25 C 145.761719 318.027344 145.117188 319.703125 143.441406 320.992188 C 141.765625 322.277344 141.121094 324.855469 139.703125 326.53125 C 138.285156 328.207031 135.578125 328.078125 134.292969 330.914062 C 133.003906 333.75 132.53125 331.644531 135.066406 327.820312 C 137.597656 323.996094 138.414062 324.039062 140.734375 321.761719 C 143.054688 319.488281 145.847656 314.589844 147.78125 313.429688 C 149.714844 312.269531 149.714844 312.355469 149.242188 310.335938 C 148.769531 308.316406 148.597656 307.414062 147.78125 307.113281 C 146.964844 306.8125 145.933594 306.855469 144.128906 309.90625 C 142.324219 312.957031 138.242188 316.824219 135.664062 318.796875 C 133.089844 320.773438 134.980469 320.429688 128.792969 324.554688 C 122.605469 328.679688 125.269531 329.195312 118.738281 333.664062 C 112.207031 338.132812 110.703125 338.777344 111.089844 343.933594 C 111.476562 349.085938 105.9375 351.277344 106.324219 356.949219 C 106.710938 362.621094 105.679688 373.960938 104.648438 368.164062 C 103.617188 362.363281 102.714844 362.621094 102.328125 358.367188 C 101.941406 354.113281 102.457031 350.375 99.105469 352.179688 C 95.753906 353.988281 96.914062 352.050781 90.339844 356.433594 C 83.765625 360.816406 85.183594 357.59375 78.355469 363.136719 C 71.523438 368.679688 55.324219 379.101562 57.234375 375.890625 "/></g></g></svg>