<svg xmlns="http://www.w3.org/2000/svg" xmlns:xlink="http://www.w3.org/1999/xlink" width="500" zoomAndPan="magnify" viewBox="0 0 375 449.999984" height="600" preserveAspectRatio="xMidYMid meet" version="1.0"><defs><clipPath id="3a157224e0"><path d="M 0 424.769531 L 375 424.769531 L 375 450 L 0 450 Z M 0 424.769531 " clip-rule="nonzero"/></clipPath><clipPath id="37a46446f0"><path d="M 124.332031 425.304688 C 143.71875 424.980469 165.898438 424.769531 187.601562 424.769531 C 209.308594 424.769531 230.191406 424.953125 249.441406 425.273438 C 249.851562 425.285156 250.261719 425.285156 250.667969 425.292969 C 322.949219 426.585938 376.1875 429.992188 377.210938 434.21875 L 377.210938 458.652344 L -2.210938 458.652344 L -2.210938 434.238281 C -1.1875 429.96875 51.230469 426.5625 124.332031 425.304688 Z M 124.332031 425.304688 " clip-rule="nonzero"/></clipPath><clipPath id="835fb800fb"><path d="M 0 0.769531 L 375 0.769531 L 375 26 L 0 26 Z M 0 0.769531 " clip-rule="nonzero"/></clipPath><clipPath id="41b2e853ec"><path d="M 124.332031 1.304688 C 143.71875 0.980469 165.898438 0.769531 187.601562 0.769531 C 209.308594 0.769531 230.191406 0.953125 249.441406 1.273438 C 249.851562 1.285156 250.261719 1.285156 250.667969 1.292969 C 322.949219 2.585938 376.1875 5.992188 377.210938 10.21875 L 377.210938 34.652344 L -2.210938 34.652344 L -2.210938 10.238281 C -1.1875 5.96875 51.230469 2.5625 124.332031 1.304688 Z M 124.332031 1.304688 " clip-rule="nonzero"/></clipPath><clipPath id="6b5a5578de"><rect x="0" width="375" y="0" height="26"/></clipPath><clipPath id="a344f9e971"><path d="M 0 0 L 375 0 L 375 25.234375 L 0 25.234375 Z M 0 0 " clip-rule="nonzero"/></clipPath><clipPath id="a50811fd68"><path d="M 250.664062 24.699219 C 231.273438 25.023438 209.09375 25.234375 187.390625 25.234375 C 165.683594 25.234375 144.800781 25.050781 125.550781 24.730469 C 125.140625 24.71875 124.734375 24.71875 124.324219 24.710938 C 52.042969 23.417969 -1.195312 20.011719 -2.21875 15.785156 L -2.21875 -8.667969 L 377.207031 -8.667969 L 377.207031 15.765625 C 376.179688 20.035156 323.761719 23.441406 250.664062 24.699219 Z M 250.664062 24.699219 " clip-rule="nonzero"/></clipPath><clipPath id="7d310830fd"><path d="M 0 0 L 375 0 L 375 25.234375 L 0 25.234375 Z M 0 0 " clip-rule="nonzero"/></clipPath><clipPath id="ef61a66878"><path d="M 250.664062 24.699219 C 231.273438 25.023438 209.09375 25.234375 187.390625 25.234375 C 165.683594 25.234375 144.800781 25.050781 125.550781 24.730469 C 125.140625 24.71875 124.734375 24.71875 124.324219 24.710938 C 52.042969 23.417969 -1.195312 20.011719 -2.21875 15.785156 L -2.21875 -8.667969 L 377.207031 -8.667969 L 377.207031 15.765625 C 376.179688 20.035156 323.761719 23.441406 250.664062 24.699219 Z M 250.664062 24.699219 " clip-rule="nonzero"/></clipPath><clipPath id="4a3e15c6fe"><rect x="0" width="375" y="0" height="26"/></clipPath></defs><rect x="-37.5" width="450" fill="#ffffff" y="-44.999998" height="539.99998" fill-opacity="1"/><rect x="-37.5" width="450" fill="#f0f2f5" y="-44.999998" height="539.99998" fill-opacity="1"/><path stroke-linecap="round" transform="matrix(0.75, 0, 0, 0.75, 37.567647, 16.068606)" fill="none" stroke-linejoin="miter" d="M 0.555638 0.554359 C 133.493148 15.283527 266.430659 15.278318 399.362961 0.538734 " stroke="#868e96" stroke-width="1" stroke-opacity="1" stroke-miterlimit="4"/><g clip-path="url(#3a157224e0)"><g clip-path="url(#37a46446f0)"><g transform="matrix(1, 0, 0, 1, 0, 424)"><g clip-path="url(#6b5a5578de)"><g clip-path="url(#835fb800fb)"><g clip-path="url(#41b2e853ec)"><path fill="#ffffff" d="M -2.210938 0.769531 L 377.257812 0.769531 L 377.257812 34.652344 L -2.210938 34.652344 Z M -2.210938 0.769531 " fill-opacity="1" fill-rule="nonzero"/></g></g></g></g></g></g><g clip-path="url(#a344f9e971)"><g clip-path="url(#a50811fd68)"><g transform="matrix(1, 0, 0, 1, 0, 0)"><g clip-path="url(#4a3e15c6fe)"><g clip-path="url(#7d310830fd)"><g clip-path="url(#ef61a66878)"><path fill="#ffffff" d="M 377.207031 25.234375 L -2.183594 25.234375 L -2.183594 -8.667969 L 377.207031 -8.667969 Z M 377.207031 25.234375 " fill-opacity="1" fill-rule="nonzero"/></g></g></g></g></g></g></svg>