<svg xmlns="http://www.w3.org/2000/svg" xmlns:xlink="http://www.w3.org/1999/xlink" width="2400" zoomAndPan="magnify" viewBox="0 0 1800 675.000002" height="900" preserveAspectRatio="xMidYMid meet" version="1.0"><defs><clipPath id="fd5c32d0b7"><path d="M 1.332031 0 L 1798.667969 0 L 1798.667969 674 L 1.332031 674 Z M 1.332031 0 " clip-rule="nonzero"/></clipPath><clipPath id="3b8e80bf59"><path d="M 1.332031 619.40625 L 1798.667969 619.40625 L 1798.667969 674 L 1.332031 674 Z M 1.332031 619.40625 " clip-rule="nonzero"/></clipPath><clipPath id="ae04aaeee4"><path d="M 597.238281 622.289062 C 690.167969 620.546875 796.460938 619.40625 900.488281 619.40625 C 1004.519531 619.40625 1104.625 620.386719 1196.871094 622.125 C 1198.835938 622.179688 1200.800781 622.179688 1202.761719 622.234375 C 1549.195312 629.1875 1804.359375 647.554688 1809.265625 669.320312 L 1809.265625 755.78125 L -9.265625 755.78125 L -9.265625 669.386719 C -4.359375 647.445312 246.878906 629.078125 597.238281 622.289062 Z M 597.238281 622.289062 " clip-rule="nonzero"/></clipPath><clipPath id="07ebaa496d"><path d="M 0.332031 0.40625 L 1797.667969 0.40625 L 1797.667969 55 L 0.332031 55 Z M 0.332031 0.40625 " clip-rule="nonzero"/></clipPath><clipPath id="057c78538c"><path d="M 596.238281 3.289062 C 689.167969 1.546875 795.460938 0.40625 899.488281 0.40625 C 1003.519531 0.40625 1103.625 1.386719 1195.871094 3.125 C 1197.835938 3.179688 1199.800781 3.179688 1201.761719 3.234375 C 1548.195312 10.1875 1803.359375 28.554688 1808.265625 50.320312 L 1808.265625 136.78125 L -10.265625 136.78125 L -10.265625 50.386719 C -5.359375 28.445312 245.878906 10.078125 596.238281 3.289062 Z M 596.238281 3.289062 " clip-rule="nonzero"/></clipPath><clipPath id="835b49f6a7"><rect x="0" width="1798" y="0" height="55"/></clipPath><clipPath id="c491ae3f59"><path d="M 1.332031 0 L 1798.667969 0 L 1798.667969 54.589844 L 1.332031 54.589844 Z M 1.332031 0 " clip-rule="nonzero"/></clipPath><clipPath id="68515f6cc0"><path d="M 1202.757812 51.710938 C 1109.828125 53.449219 1003.535156 54.589844 899.507812 54.589844 C 795.476562 54.589844 695.375 53.613281 603.125 51.871094 C 601.160156 51.816406 599.199219 51.816406 597.238281 51.765625 C 250.804688 44.808594 -4.359375 26.441406 -9.269531 4.675781 L -9.269531 -81.785156 L 1809.261719 -81.785156 L 1809.261719 4.613281 C 1804.355469 26.550781 1553.117188 44.917969 1202.757812 51.710938 Z M 1202.757812 51.710938 " clip-rule="nonzero"/></clipPath><clipPath id="216cd97c80"><path d="M 0.332031 0 L 1797.667969 0 L 1797.667969 54.589844 L 0.332031 54.589844 Z M 0.332031 0 " clip-rule="nonzero"/></clipPath><clipPath id="33b339d14d"><path d="M 1201.757812 51.710938 C 1108.828125 53.449219 1002.535156 54.589844 898.507812 54.589844 C 794.476562 54.589844 694.375 53.613281 602.125 51.871094 C 600.160156 51.816406 598.199219 51.816406 596.238281 51.765625 C 249.804688 44.808594 -5.359375 26.441406 -10.269531 4.675781 L -10.269531 -81.785156 L 1808.261719 -81.785156 L 1808.261719 4.613281 C 1803.355469 26.550781 1552.117188 44.917969 1201.757812 51.710938 Z M 1201.757812 51.710938 " clip-rule="nonzero"/></clipPath><clipPath id="5d5cdce061"><rect x="0" width="1798" y="0" height="55"/></clipPath></defs><rect x="-180" width="2160" fill="#ffffff" y="-67.5" height="810" fill-opacity="1"/><rect x="-180" width="2160" fill="#1263a0" y="-67.5" height="810" fill-opacity="1"/><g clip-path="url(#3b8e80bf59)"><g clip-path="url(#ae04aaeee4)"><g transform="matrix(1, 0, 0, 1, 1, 619)"><g clip-path="url(#835b49f6a7)"><g clip-path="url(#07ebaa496d)"><g clip-path="url(#057c78538c)"><path fill="#ffffff" d="M -10.265625 0.40625 L 1808.394531 0.40625 L 1808.394531 136.78125 L -10.265625 136.78125 Z M -10.265625 0.40625 " fill-opacity="1" fill-rule="nonzero"/></g></g></g></g></g></g><g clip-path="url(#c491ae3f59)"><g clip-path="url(#68515f6cc0)"><g transform="matrix(1, 0, 0, 1, 1, -0.000000000000005375)"><g clip-path="url(#5d5cdce061)"><g clip-path="url(#216cd97c80)"><g clip-path="url(#33b339d14d)"><path fill="#ffffff" d="M 1808.261719 54.589844 L -10.398438 54.589844 L -10.398438 -81.785156 L 1808.261719 -81.785156 Z M 1808.261719 54.589844 " fill-opacity="1" fill-rule="nonzero"/></g></g></g></g></g></g></svg>