<svg xmlns="http://www.w3.org/2000/svg" xmlns:xlink="http://www.w3.org/1999/xlink" width="2400" zoomAndPan="magnify" viewBox="0 0 1800 749.999995" height="1000" preserveAspectRatio="xMidYMid meet" version="1.0"><defs><clipPath id="8bea17f0bd"><path d="M 0 695.324219 L 1800 695.324219 L 1800 750 L 0 750 Z M 0 695.324219 " clip-rule="nonzero"/></clipPath><clipPath id="fb5a42fece"><path d="M 596.789062 698.53125 C 689.859375 696.59375 796.308594 695.324219 900.492188 695.324219 C 1004.675781 695.324219 1104.925781 696.414062 1197.3125 698.347656 C 1199.28125 698.410156 1201.246094 698.410156 1203.210938 698.46875 C 1550.15625 706.207031 1805.699219 726.644531 1810.613281 750.53125 L 1810.613281 831.917969 L -10.613281 831.917969 L -10.613281 750.589844 C -5.699219 726.527344 245.910156 706.089844 596.789062 698.53125 Z M 596.789062 698.53125 " clip-rule="nonzero"/></clipPath><clipPath id="c0de73fa34"><path d="M 0 0.324219 L 1800 0.324219 L 1800 55 L 0 55 Z M 0 0.324219 " clip-rule="nonzero"/></clipPath><clipPath id="52c9db8a6d"><path d="M 596.789062 3.53125 C 689.859375 1.59375 796.308594 0.324219 900.492188 0.324219 C 1004.675781 0.324219 1104.925781 1.414062 1197.3125 3.347656 C 1199.28125 3.410156 1201.246094 3.410156 1203.210938 3.46875 C 1550.15625 11.207031 1805.699219 31.644531 1810.613281 55.53125 L 1810.613281 136.917969 L -10.613281 136.917969 L -10.613281 55.589844 C -5.699219 31.527344 245.910156 11.089844 596.789062 3.53125 Z M 596.789062 3.53125 " clip-rule="nonzero"/></clipPath><clipPath id="ed3ebff98d"><rect x="0" width="1800" y="0" height="55"/></clipPath><clipPath id="713457062a"><path d="M 0 0 L 1800 0 L 1800 54.671875 L 0 54.671875 Z M 0 0 " clip-rule="nonzero"/></clipPath><clipPath id="b835711cfd"><path d="M 1203.207031 51.464844 C 1110.140625 53.402344 1003.6875 54.671875 899.507812 54.671875 C 795.324219 54.671875 695.070312 53.582031 602.6875 51.648438 C 600.71875 51.585938 598.753906 51.585938 596.789062 51.527344 C 249.839844 43.785156 -5.699219 23.347656 -10.613281 -0.535156 L -10.613281 -81.90625 L 1810.609375 -81.90625 L 1810.609375 -0.59375 C 1805.695312 23.46875 1554.085938 43.90625 1203.207031 51.464844 Z M 1203.207031 51.464844 " clip-rule="nonzero"/></clipPath><clipPath id="063b20d4a5"><path d="M 0 0 L 1800 0 L 1800 54.671875 L 0 54.671875 Z M 0 0 " clip-rule="nonzero"/></clipPath><clipPath id="ecebc6375b"><path d="M 1203.207031 51.464844 C 1110.140625 53.402344 1003.6875 54.671875 899.507812 54.671875 C 795.324219 54.671875 695.070312 53.582031 602.6875 51.648438 C 600.71875 51.585938 598.753906 51.585938 596.789062 51.527344 C 249.839844 43.785156 -5.699219 23.347656 -10.613281 -0.535156 L -10.613281 -81.90625 L 1810.609375 -81.90625 L 1810.609375 -0.59375 C 1805.695312 23.46875 1554.085938 43.90625 1203.207031 51.464844 Z M 1203.207031 51.464844 " clip-rule="nonzero"/></clipPath><clipPath id="063fad075a"><rect x="0" width="1800" y="0" height="55"/></clipPath></defs><rect x="-180" width="2160" fill="#ffffff" y="-74.999999" height="899.999994" fill-opacity="1"/><rect x="-180" width="2160" fill="#1263a0" y="-74.999999" height="899.999994" fill-opacity="1"/><g clip-path="url(#8bea17f0bd)"><g clip-path="url(#fb5a42fece)"><g transform="matrix(1, 0, 0, 1, 0, 695)"><g clip-path="url(#ed3ebff98d)"><g clip-path="url(#c0de73fa34)"><g clip-path="url(#52c9db8a6d)"><path fill="#ffffff" d="M -10.613281 0.324219 L 1810.441406 0.324219 L 1810.441406 136.917969 L -10.613281 136.917969 Z M -10.613281 0.324219 " fill-opacity="1" fill-rule="nonzero"/></g></g></g></g></g></g><g clip-path="url(#713457062a)"><g clip-path="url(#b835711cfd)"><g transform="matrix(1, 0, 0, 1, 0, -0.000000000000042435)"><g clip-path="url(#063fad075a)"><g clip-path="url(#063b20d4a5)"><g clip-path="url(#ecebc6375b)"><path fill="#ffffff" d="M 1810.609375 54.671875 L -10.746094 54.671875 L -10.746094 -81.90625 L 1810.609375 -81.90625 Z M 1810.609375 54.671875 " fill-opacity="1" fill-rule="nonzero"/></g></g></g></g></g></g></svg>