<svg xmlns="http://www.w3.org/2000/svg" xmlns:xlink="http://www.w3.org/1999/xlink" width="1000" zoomAndPan="magnify" viewBox="0 0 750 599.999999" height="800" preserveAspectRatio="xMidYMid meet" version="1.0"><defs><clipPath id="8f9d0b7284"><path d="M 0 560.785156 L 750 560.785156 L 750 600 L 0 600 Z M 0 560.785156 " clip-rule="nonzero"/></clipPath><clipPath id="b5406e7779"><path d="M 248.660156 561.855469 C 287.441406 561.210938 331.796875 560.785156 375.203125 560.785156 C 418.613281 560.785156 460.386719 561.148438 498.878906 561.792969 C 499.699219 561.8125 500.519531 561.8125 501.339844 561.835938 C 645.902344 564.414062 752.378906 571.226562 754.425781 579.1875 L 754.425781 606.316406 L -4.425781 606.316406 L -4.425781 579.207031 C -2.378906 571.1875 102.460938 564.375 248.660156 561.855469 Z M 248.660156 561.855469 " clip-rule="nonzero"/></clipPath><clipPath id="8e84802e93"><path d="M 0 0.785156 L 750 0.785156 L 750 40 L 0 40 Z M 0 0.785156 " clip-rule="nonzero"/></clipPath><clipPath id="6f2c3e4896"><path d="M 248.660156 1.855469 C 287.441406 1.210938 331.796875 0.785156 375.203125 0.785156 C 418.613281 0.785156 460.386719 1.148438 498.878906 1.792969 C 499.699219 1.8125 500.519531 1.8125 501.339844 1.835938 C 645.902344 4.414062 752.378906 11.226562 754.425781 19.1875 L 754.425781 46.316406 L -4.425781 46.316406 L -4.425781 19.207031 C -2.378906 11.1875 102.460938 4.375 248.660156 1.855469 Z M 248.660156 1.855469 " clip-rule="nonzero"/></clipPath><clipPath id="e1f389d94a"><rect x="0" width="750" y="0" height="40"/></clipPath><clipPath id="b8e685d6f1"><path d="M 0 0 L 750 0 L 750 39.226562 L 0 39.226562 Z M 0 0 " clip-rule="nonzero"/></clipPath><clipPath id="a839f5d1b4"><path d="M 501.335938 38.160156 C 462.558594 38.804688 418.203125 39.226562 374.792969 39.226562 C 331.382812 39.226562 289.609375 38.867188 251.117188 38.21875 C 250.296875 38.199219 249.476562 38.199219 248.660156 38.179688 C 104.097656 35.601562 -2.378906 28.789062 -4.425781 20.828125 L -4.425781 -6.300781 L 754.421875 -6.300781 L 754.421875 20.804688 C 752.375 28.828125 647.535156 35.640625 501.335938 38.160156 Z M 501.335938 38.160156 " clip-rule="nonzero"/></clipPath><clipPath id="fde9059abe"><path d="M 0 0 L 750 0 L 750 39.226562 L 0 39.226562 Z M 0 0 " clip-rule="nonzero"/></clipPath><clipPath id="93bd72c1ca"><path d="M 501.335938 38.160156 C 462.558594 38.804688 418.203125 39.226562 374.792969 39.226562 C 331.382812 39.226562 289.609375 38.867188 251.117188 38.21875 C 250.296875 38.199219 249.476562 38.199219 248.660156 38.179688 C 104.097656 35.601562 -2.378906 28.789062 -4.425781 20.828125 L -4.425781 -6.300781 L 754.421875 -6.300781 L 754.421875 20.804688 C 752.375 28.828125 647.535156 35.640625 501.335938 38.160156 Z M 501.335938 38.160156 " clip-rule="nonzero"/></clipPath><clipPath id="7a601f4f47"><rect x="0" width="750" y="0" height="40"/></clipPath></defs><rect x="0" width="750" fill="#ffffff" y="0" height="599.999999" fill-opacity="1"/><rect x="0" width="750" fill="#1263a0" y="0" height="599.999999" fill-opacity="1"/><path stroke-linecap="round" transform="matrix(0.75, 0, 0, 0.75, 75.135283, 20.882652)" fill="none" stroke-linejoin="miter" d="M 1.106081 1.104381 C 266.949843 30.562715 532.788396 30.557507 798.632157 1.093964 " stroke="#868e96" stroke-width="2" stroke-opacity="1" stroke-miterlimit="4"/><g clip-path="url(#8f9d0b7284)"><g clip-path="url(#b5406e7779)"><g transform="matrix(1, 0, 0, 1, 0, 560)"><g clip-path="url(#e1f389d94a)"><g clip-path="url(#8e84802e93)"><g clip-path="url(#6f2c3e4896)"><path fill="#ffffff" d="M -4.425781 0.785156 L 754.480469 0.785156 L 754.480469 46.316406 L -4.425781 46.316406 Z M -4.425781 0.785156 " fill-opacity="1" fill-rule="nonzero"/></g></g></g></g></g></g><g clip-path="url(#b8e685d6f1)"><g clip-path="url(#a839f5d1b4)"><g transform="matrix(1, 0, 0, 1, 0, -0.000000000000034788)"><g clip-path="url(#7a601f4f47)"><g clip-path="url(#fde9059abe)"><g clip-path="url(#93bd72c1ca)"><path fill="#ffffff" d="M 754.421875 39.226562 L -4.484375 39.226562 L -4.484375 -6.300781 L 754.421875 -6.300781 Z M 754.421875 39.226562 " fill-opacity="1" fill-rule="nonzero"/></g></g></g></g></g></g></svg>