<svg xmlns="http://www.w3.org/2000/svg" width="500" height="500" version="1.2" viewBox="0 0 375 375"><defs><clipPath id="eeb3588221"><path d="M0 350.492h375V375H0Zm0 0"/></clipPath><clipPath id="bdc4730d98"><path d="M124.332 351.16c19.387-.402 41.566-.668 63.27-.668 21.707 0 42.59.227 61.84.63.41.01.816.01 1.226.026 72.281 1.61 125.52 5.868 126.543 10.844v16.957H-2.211v-16.945c1.023-5.012 53.441-9.27 126.543-10.844m0 0"/></clipPath><clipPath id="93e5e2d308"><path d="M0 0h375v24.516H0Zm0 0"/></clipPath><clipPath id="229c2c2117"><path d="M250.664 23.848c-19.39.402-41.566.668-63.27.668-21.707 0-42.593-.227-61.84-.63-.41-.011-.82-.011-1.23-.027C52.047 22.25-1.19 17.992-2.215 13.016V-3.941h379.422v16.945c-1.023 5.012-53.445 9.27-126.543 10.844m0 0"/></clipPath></defs><g id="09cae4d0dd"><path d="M0 0h375v375H0z" style="fill:#fff;fill-opacity:1;stroke:none"/><path d="M0 0h375v375H0z" style="fill:#1263a0;fill-opacity:1;stroke:none"/><path d="M.556.552Q249.924 28.199 499.29.542" style="fill:none;stroke-width:1;stroke-linecap:round;stroke-linejoin:miter;stroke:#868e96;stroke-opacity:1;stroke-miterlimit:4" transform="matrix(.75 0 0 .75 .095 13.145)"/><g clip-path="url(#eeb3588221)"><g clip-path="url(#bdc4730d98)"><path d="M-2.21 350.492h379.386v28.457H-2.211Zm0 0" style="stroke:none;fill-rule:nonzero;fill:#fff;fill-opacity:1"/></g></g><g clip-path="url(#93e5e2d308)"><g clip-path="url(#229c2c2117)"><path d="M377.207 24.516H-2.18V-3.941h379.387Zm0 0" style="stroke:none;fill-rule:nonzero;fill:#fff;fill-opacity:1"/></g></g></g></svg>