<svg xmlns="http://www.w3.org/2000/svg" width="1000" height="800" version="1.0" viewBox="0 0 750 600"><defs><clipPath id="00c6608686"><path d="M0 560.785h750V600H0Zm0 0"/></clipPath><clipPath id="4080e7094e"><path d="M248.66 561.855c38.781-.644 83.137-1.07 126.543-1.07 43.41 0 85.184.363 123.676 1.008.82.02 1.64.02 2.46.043 144.563 2.578 251.04 9.39 253.087 17.351v27.13H-4.426v-27.11c2.047-8.02 106.887-14.832 253.086-17.352m0 0"/></clipPath><clipPath id="86d9255330"><path d="M0 .785h750V40H0Zm0 0"/></clipPath><clipPath id="eb443dd1ec"><path d="M248.66 1.855c38.781-.644 83.137-1.07 126.543-1.07 43.41 0 85.184.363 123.676 1.008.82.02 1.64.02 2.46.043 144.563 2.578 251.04 9.39 253.087 17.352v27.128H-4.426V19.207c2.047-8.02 106.887-14.832 253.086-17.352m0 0"/></clipPath><clipPath id="128c2f3fdf"><path d="M0 0h750v40H0z"/></clipPath><clipPath id="9befd19fb6"><path d="M0 0h750v39.227H0Zm0 0"/></clipPath><clipPath id="5a58d5bd39"><path d="M501.336 38.16c-38.777.645-83.133 1.067-126.543 1.067s-85.184-.36-123.676-1.008c-.82-.02-1.64-.02-2.457-.04C104.098 35.603-2.379 28.79-4.426 20.83V-6.3h758.848v27.106c-2.047 8.023-106.887 14.836-253.086 17.355m0 0"/></clipPath><clipPath id="f7e7b71f27"><path d="M0 0h750v39.227H0Zm0 0"/></clipPath><clipPath id="95fbf53b89"><path d="M501.336 38.16c-38.777.645-83.133 1.067-126.543 1.067s-85.184-.36-123.676-1.008c-.82-.02-1.64-.02-2.457-.04C104.098 35.603-2.379 28.79-4.426 20.83V-6.3h758.848v27.106c-2.047 8.023-106.887 14.836-253.086 17.355m0 0"/></clipPath><clipPath id="2bb15d1bf2"><path d="M0 0h750v40H0z"/></clipPath></defs><path fill="#fff" d="M-75-60h900v720H-75z"/><path fill="#f0f2f5" d="M-75-60h900v720H-75z"/><path fill="none" stroke="#868e96" stroke-linecap="round" stroke-width="1.5" d="M75.965 21.71q299.073 33.14 598.144-.007"/><g clip-path="url(#00c6608686)"><g clip-path="url(#4080e7094e)"><g clip-path="url(#128c2f3fdf)" transform="translate(0 560)"><g clip-path="url(#86d9255330)"><g clip-path="url(#eb443dd1ec)"><path fill="#fff" d="M-4.426.785H754.48v45.531H-4.426Zm0 0"/></g></g></g></g></g><g clip-path="url(#9befd19fb6)"><g clip-path="url(#5a58d5bd39)"><g clip-path="url(#2bb15d1bf2)"><g clip-path="url(#f7e7b71f27)"><g clip-path="url(#95fbf53b89)"><path fill="#fff" d="M754.422 39.227H-4.484V-6.301h758.906Zm0 0"/></g></g></g></g></g></svg>