<svg xmlns="http://www.w3.org/2000/svg" width="2400" height="1000" version="1.0" viewBox="0 0 1800 750"><defs><clipPath id="c966e1c8a0"><path d="M0 695.324h1800V750H0Zm0 0"/></clipPath><clipPath id="f3590b6aba"><path d="M596.79 698.531c93.07-1.937 199.519-3.207 303.702-3.207 104.184 0 204.434 1.09 296.82 3.024 1.97.062 3.934.062 5.899.12 346.945 7.739 602.488 28.177 607.402 52.063v81.387H-10.613V750.59c4.914-24.063 256.523-44.5 607.402-52.059m0 0"/></clipPath><clipPath id="ea9b755060"><path d="M0 .324h1800V55H0Zm0 0"/></clipPath><clipPath id="24397c8ecc"><path d="M596.79 3.531C689.86 1.594 796.308.324 900.491.324s204.434 1.09 296.82 3.024c1.97.062 3.934.062 5.899.12 346.945 7.739 602.488 28.177 607.402 52.063v81.387H-10.613V55.59C-5.7 31.527 245.91 11.09 596.789 3.53m0 0"/></clipPath><clipPath id="2e03a822b7"><path d="M0 0h1800v55H0z"/></clipPath><clipPath id="98d69ef407"><path d="M1203.207 51.465c-93.066 1.937-199.52 3.207-303.7 3.207-104.183 0-204.437-1.09-296.82-3.024-1.968-.062-3.933-.062-5.898-.12C249.84 43.784-5.699 23.347-10.613-.536v-81.371h1821.222V-.594c-4.914 24.063-256.523 44.5-607.402 52.059m0 0"/></clipPath><clipPath id="0314406ff5"><path d="M0 0h1800v54.672H0Zm0 0"/></clipPath><clipPath id="9b1f68df99"><path d="M1203.207 51.465c-93.066 1.937-199.52 3.207-303.7 3.207-104.183 0-204.437-1.09-296.82-3.024-1.968-.062-3.933-.062-5.898-.12C249.84 43.784-5.699 23.347-10.613-.536v-81.371h1821.222V-.594c-4.914 24.063-256.523 44.5-607.402 52.059m0 0"/></clipPath><clipPath id="6e9a7a1a22"><path d="M0 0h1800v55H0z"/></clipPath></defs><path fill="#fff" d="M-180-75h2160v900H-180z"/><path fill="#f0f2f5" d="M-180-75h2160v900H-180z"/><g clip-path="url(#c966e1c8a0)"><g clip-path="url(#f3590b6aba)"><g clip-path="url(#2e03a822b7)" transform="translate(0 695)"><g clip-path="url(#ea9b755060)"><g clip-path="url(#24397c8ecc)"><path fill="#fff" d="M-10.613.324H1810.44v136.594H-10.613Zm0 0"/></g></g></g></g></g><g clip-path="url(#785e577464)"><g clip-path="url(#98d69ef407)"><g clip-path="url(#6e9a7a1a22)"><g clip-path="url(#0314406ff5)"><g clip-path="url(#9b1f68df99)"><path fill="#fff" d="M1810.61 54.672H-10.747V-81.906h1821.355Zm0 0"/></g></g></g></g></g></svg>