<svg xmlns="http://www.w3.org/2000/svg" width="2400" height="900" version="1.0" viewBox="0 0 1800 675"><defs><clipPath id="09bf4fd517"><path d="M1.332 619.406h1797.336V674H1.332Zm0 0"/></clipPath><clipPath id="f89eb2771a"><path d="M597.238 622.29c92.93-1.743 199.223-2.884 303.25-2.884 104.032 0 204.137.98 296.383 2.719 1.965.055 3.93.055 5.89.11 346.434 6.952 601.598 25.32 606.505 47.085v86.461H-9.266v-86.394c4.907-21.942 256.145-40.309 606.504-47.098m0 0"/></clipPath><clipPath id="6019a85164"><path d="M.332.406h1797.336V55H.332Zm0 0"/></clipPath><clipPath id="a7558103e9"><path d="M596.238 3.29C689.168 1.546 795.461.405 899.488.405c104.032 0 204.137.98 296.383 2.719 1.965.055 3.93.055 5.89.11 346.434 6.953 601.598 25.32 606.505 47.085v86.461H-10.266V50.387C-5.359 28.445 245.88 10.078 596.238 3.289m0 0"/></clipPath><clipPath id="099aecdd53"><path d="M0 0h1798v55H0z"/></clipPath><clipPath id="933a8cfff0"><path d="M1.332 0h1797.336v54.59H1.332Zm0 0"/></clipPath><clipPath id="ac3794ff08"><path d="M1202.758 51.71c-92.93 1.74-199.223 2.88-303.25 2.88-104.031 0-204.133-.977-296.383-2.719-1.965-.055-3.926-.055-5.887-.105C250.805 44.809-4.359 26.44-9.27 4.676v-86.461h1818.532V4.613c-4.907 21.938-256.145 40.305-606.504 47.098m0 0"/></clipPath><clipPath id="209d798db8"><path d="M.332 0h1797.336v54.59H.332Zm0 0"/></clipPath><clipPath id="574a968d25"><path d="M1201.758 51.71c-92.93 1.74-199.223 2.88-303.25 2.88-104.031 0-204.133-.977-296.383-2.719-1.965-.055-3.926-.055-5.887-.105C249.805 44.809-5.359 26.44-10.27 4.676v-86.461h1818.532V4.613c-4.907 21.938-256.145 40.305-606.504 47.098m0 0"/></clipPath><clipPath id="df963d5a37"><path d="M0 0h1798v55H0z"/></clipPath></defs><path fill="#fff" d="M-180-67.5h2160v810H-180z"/><path fill="#f0f2f5" d="M-180-67.5h2160v810H-180z"/><g clip-path="url(#09bf4fd517)"><g clip-path="url(#f89eb2771a)"><g clip-path="url(#099aecdd53)" transform="translate(1 619)"><g clip-path="url(#6019a85164)"><g clip-path="url(#a7558103e9)"><path fill="#fff" d="M-10.266.406h1818.66v136.375H-10.265Zm0 0"/></g></g></g></g></g><g clip-path="url(#933a8cfff0)"><g clip-path="url(#ac3794ff08)"><g clip-path="url(#df963d5a37)" transform="translate(1)"><g clip-path="url(#209d798db8)"><g clip-path="url(#574a968d25)"><path fill="#fff" d="M1808.262 54.59H-10.398V-81.785h1818.66Zm0 0"/></g></g></g></g></g></svg>