<svg xmlns="http://www.w3.org/2000/svg" width="1000" height="800" version="1.0" viewBox="0 0 750 600"><defs><clipPath id="8f9d0b7284"><path d="M0 560.785h750V600H0Zm0 0"/></clipPath><clipPath id="b5406e7779"><path d="M248.66 561.855c38.781-.644 83.137-1.07 126.543-1.07 43.41 0 85.184.363 123.676 1.008.82.02 1.64.02 2.46.043 144.563 2.578 251.04 9.39 253.087 17.351v27.13H-4.426v-27.11c2.047-8.02 106.887-14.832 253.086-17.352m0 0"/></clipPath><clipPath id="8e84802e93"><path d="M0 .785h750V40H0Zm0 0"/></clipPath><clipPath id="6f2c3e4896"><path d="M248.66 1.855c38.781-.644 83.137-1.07 126.543-1.07 43.41 0 85.184.363 123.676 1.008.82.02 1.64.02 2.46.043 144.563 2.578 251.04 9.39 253.087 17.352v27.128H-4.426V19.207c2.047-8.02 106.887-14.832 253.086-17.352m0 0"/></clipPath><clipPath id="e1f389d94a"><path d="M0 0h750v40H0z"/></clipPath><clipPath id="b8e685d6f1"><path d="M0 0h750v39.227H0Zm0 0"/></clipPath><clipPath id="a839f5d1b4"><path d="M501.336 38.16c-38.777.645-83.133 1.067-126.543 1.067s-85.184-.36-123.676-1.008c-.82-.02-1.64-.02-2.457-.04C104.098 35.603-2.379 28.79-4.426 20.83V-6.3h758.848v27.106c-2.047 8.023-106.887 14.836-253.086 17.355m0 0"/></clipPath><clipPath id="fde9059abe"><path d="M0 0h750v39.227H0Zm0 0"/></clipPath><clipPath id="93bd72c1ca"><path d="M501.336 38.16c-38.777.645-83.133 1.067-126.543 1.067s-85.184-.36-123.676-1.008c-.82-.02-1.64-.02-2.457-.04C104.098 35.603-2.379 28.79-4.426 20.83V-6.3h758.848v27.106c-2.047 8.023-106.887 14.836-253.086 17.355m0 0"/></clipPath><clipPath id="7a601f4f47"><path d="M0 0h750v40H0z"/></clipPath></defs><path fill="#fff" d="M0 0h750v600H0z"/><path fill="#1263a0" d="M0 0h750v600H0z"/><path fill="none" stroke="#868e96" stroke-linecap="round" stroke-width="1.5" d="M75.965 21.71q299.073 33.14 598.144-.007"/><g clip-path="url(#8f9d0b7284)"><g clip-path="url(#b5406e7779)"><g clip-path="url(#e1f389d94a)" transform="translate(0 560)"><g clip-path="url(#8e84802e93)"><g clip-path="url(#6f2c3e4896)"><path fill="#fff" d="M-4.426.785H754.48v45.531H-4.426Zm0 0"/></g></g></g></g></g><g clip-path="url(#b8e685d6f1)"><g clip-path="url(#a839f5d1b4)"><g clip-path="url(#7a601f4f47)"><g clip-path="url(#fde9059abe)"><g clip-path="url(#93bd72c1ca)"><path fill="#fff" d="M754.422 39.227H-4.484V-6.301h758.906Zm0 0"/></g></g></g></g></g></svg>