<svg xmlns="http://www.w3.org/2000/svg" width="500" height="600" version="1.0" viewBox="0 0 375 450"><defs><clipPath id="3a157224e0"><path d="M0 424.77h375V450H0Zm0 0"/></clipPath><clipPath id="37a46446f0"><path d="M124.332 425.305c19.387-.325 41.566-.535 63.27-.535 21.707 0 42.59.183 61.84.503.41.012.82.012 1.226.02 72.281 1.293 125.52 4.7 126.543 8.926v24.433H-2.211v-24.414c1.023-4.27 53.441-7.675 126.543-8.933m0 0"/></clipPath><clipPath id="835fb800fb"><path d="M0 .77h375V26H0Zm0 0"/></clipPath><clipPath id="41b2e853ec"><path d="M124.332 1.305C143.719.98 165.898.77 187.602.77c21.707 0 42.59.183 61.84.503.41.012.82.012 1.226.02 72.281 1.293 125.52 4.7 126.543 8.926v24.433H-2.211V10.238c1.023-4.27 53.441-7.675 126.543-8.933m0 0"/></clipPath><clipPath id="6b5a5578de"><path d="M0 0h375v26H0z"/></clipPath><clipPath id="a344f9e971"><path d="M0 0h375v25.234H0Zm0 0"/></clipPath><clipPath id="a50811fd68"><path d="M250.664 24.7c-19.39.323-41.57.534-63.273.534-21.707 0-42.59-.183-61.84-.504-.41-.011-.817-.011-1.227-.02-72.281-1.292-125.52-4.698-126.543-8.925V-8.668h379.426v24.434c-1.027 4.27-53.445 7.675-126.543 8.933m0 0"/></clipPath><clipPath id="7d310830fd"><path d="M0 0h375v25.234H0Zm0 0"/></clipPath><clipPath id="ef61a66878"><path d="M250.664 24.7c-19.39.323-41.57.534-63.273.534-21.707 0-42.59-.183-61.84-.504-.41-.011-.817-.011-1.227-.02-72.281-1.292-125.52-4.698-126.543-8.925V-8.668h379.426v24.434c-1.027 4.27-53.445 7.675-126.543 8.933m0 0"/></clipPath><clipPath id="4a3e15c6fe"><path d="M0 0h375v26H0z"/></clipPath></defs><path fill="#fff" d="M-37.5-45h450v540h-450z"/><path fill="#f0f2f5" d="M-37.5-45h450v540h-450z"/><path fill="none" stroke="#868e96" stroke-linecap="round" stroke-width=".75" d="M37.984 16.484q149.557 16.57 299.106-.011"/><g clip-path="url(#3a157224e0)"><g clip-path="url(#37a46446f0)"><g clip-path="url(#6b5a5578de)" transform="translate(0 424)"><g clip-path="url(#835fb800fb)"><g clip-path="url(#41b2e853ec)"><path fill="#fff" d="M-2.21.77h379.468v33.882H-2.211Zm0 0"/></g></g></g></g></g><g clip-path="url(#a344f9e971)"><g clip-path="url(#a50811fd68)"><g clip-path="url(#4a3e15c6fe)"><g clip-path="url(#7d310830fd)"><g clip-path="url(#ef61a66878)"><path fill="#fff" d="M377.207 25.234H-2.183V-8.668h379.39Zm0 0"/></g></g></g></g></g></svg>