<svg xmlns="http://www.w3.org/2000/svg" width="500" height="600" version="1.0" viewBox="0 0 375 450"><defs><clipPath id="3c928f549d"><path d="M0 424.77h375V450H0Zm0 0"/></clipPath><clipPath id="3152eefd94"><path d="M124.332 425.305c19.387-.325 41.566-.535 63.27-.535 21.707 0 42.59.183 61.84.503.41.012.82.012 1.226.02 72.281 1.293 125.52 4.7 126.543 8.926v24.433H-2.211v-24.414c1.023-4.27 53.441-7.675 126.543-8.933m0 0"/></clipPath><clipPath id="0bb8b6ee4d"><path d="M0 .77h375V26H0Zm0 0"/></clipPath><clipPath id="d4e5166779"><path d="M124.332 1.305C143.719.98 165.898.77 187.602.77c21.707 0 42.59.183 61.84.503.41.012.82.012 1.226.02 72.281 1.293 125.52 4.7 126.543 8.926v24.433H-2.211V10.238c1.023-4.27 53.441-7.675 126.543-8.933m0 0"/></clipPath><clipPath id="54302be1ea"><path d="M0 0h375v26H0z"/></clipPath><clipPath id="b45d4bb233"><path d="M0 0h375v25.234H0Zm0 0"/></clipPath><clipPath id="8a867394e2"><path d="M250.664 24.7c-19.39.323-41.57.534-63.273.534-21.707 0-42.59-.183-61.84-.504-.41-.011-.817-.011-1.227-.02-72.281-1.292-125.52-4.698-126.543-8.925V-8.668h379.426v24.434c-1.027 4.27-53.445 7.675-126.543 8.933m0 0"/></clipPath><clipPath id="fe190aea2c"><path d="M0 0h375v25.234H0Zm0 0"/></clipPath><clipPath id="37fa37c3f4"><path d="M250.664 24.7c-19.39.323-41.57.534-63.273.534-21.707 0-42.59-.183-61.84-.504-.41-.011-.817-.011-1.227-.02-72.281-1.292-125.52-4.698-126.543-8.925V-8.668h379.426v24.434c-1.027 4.27-53.445 7.675-126.543 8.933m0 0"/></clipPath><clipPath id="3bf0fb8c52"><path d="M0 0h375v26H0z"/></clipPath></defs><path fill="#fff" d="M0 0h375v450H0z"/><path fill="#1263a0" d="M0 0h375v450H0z"/><path fill="none" stroke="#868e96" stroke-linecap="round" stroke-width=".75" d="M37.984 16.484q149.557 16.57 299.106-.011"/><g clip-path="url(#3c928f549d)"><g clip-path="url(#3152eefd94)"><g clip-path="url(#54302be1ea)" transform="translate(0 424)"><g clip-path="url(#0bb8b6ee4d)"><g clip-path="url(#d4e5166779)"><path fill="#fff" d="M-2.21.77h379.468v33.882H-2.211Zm0 0"/></g></g></g></g></g><g clip-path="url(#b45d4bb233)"><g clip-path="url(#8a867394e2)"><g clip-path="url(#3bf0fb8c52)"><g clip-path="url(#fe190aea2c)"><g clip-path="url(#37fa37c3f4)"><path fill="#fff" d="M377.207 25.234H-2.183V-8.668h379.39Zm0 0"/></g></g></g></g></g></svg>